# xmcd
#
# Track frame offsets:
#	150
#	21415
#	40207
#	53925
#	71796
#	91877
#	109690
#	132739
#	146855
#	162443
#	178441
#	195760
#	213721
#	227758
#
# Disc length: 3223 seconds
#
# Revision: 1
# Processed by: cddbd v1.5.2PL0 Copyright (c) Steve Scherf et al.
# Submitted via: audiograbber 1.83.01
#
DISCID=d90c950e
DTITLE=Reba McEntire - Stronger Than The Truth (Target Exclusive)
DYEAR=2019
DGENRE=Country
TTITLE0=Swing All Night Long With You
TTITLE1=Stronger Than The Truth
TTITLE2=Storm In A Shot Glass
TTITLE3=Tammy Wynette Kind Of Pain
TTITLE4=Cactus In A Coffee Can
TTITLE5=Your Heart
TTITLE6=The Clown
TTITLE7=No U In Oklahoma
TTITLE8=The Bar's Getting Lower
TTITLE9=In His Mind
TTITLE10=Freedom
TTITLE11=You Never Gave Up On Me
TTITLE12=While You Were Sleeping
TTITLE13=Ain't Got Nothin' On My Pain
EXTD=Target Bonus Tracks
EXTT0=
EXTT1=
EXTT2=
EXTT3=
EXTT4=
EXTT5=
EXTT6=
EXTT7=
EXTT8=
EXTT9=
EXTT10=
EXTT11=
EXTT12=
EXTT13=
PLAYORDER=
